 http://img695.imageshack.us/img695/2403/drivef.jpg[


Verenigde Staten
Actie / Drama
100 minuten

geregisseerd door Nicolas Winding Refn
met Ryan Gosling, Carey Mulligan en Bryan Cranston

In Drive staat een Hollywood-stuntrijder centraal, een eenzaat van nature, die er een bijverdienste als bestuurder van de vluchtwagen in de criminele onderwereld op nahoudt. Hij haalt zich de woede op de hals van een van L.A.’s gevaarlijkste mannen nadat hij het ex-criminele vriendje van z’n mooie buurvrouw helpt bij een klus die helemaal fout afloopt. De enige manier om haar te beschermen en in leven te blijven is doen wat hij het beste kan: rijden.



Nl subs





Screenshots:
 
http://www.hotimg.com/image/cJmNCVx 
http://www.hotimg.com/image/k9suRMu 
http://www.hotimg.com/image/ha7gqmB 
http://www.hotimg.com/image/NpyXCH7




INFO;

Format                                   : Matroska
Format version                           : Version 2
File size                                : 2.54 GiB
Duration                                 : 1h 40mn
Overall bit rate                         : 3 600 Kbps
Encoded date                             : UTC 2012-01-13 21:48:59
Writing application                      : mkvmerge v5.2.1 ('A Far Off Place') built on Jan  2 2012 23:21:10
Writing library                          : libebml v1.2.3 + libmatroska v1.3.0

Video
ID                                       : 1
Format                                   : MPEG-4 Visual
Format profile                           : Advanced Simple@L5
Format settings, BVOP                    : Yes
Format settings, QPel                    : No
Format settings, GMC                     : No warppoints
Format settings, Matrix                  : Custom
Codec ID                                 : XVID
Codec ID/Hint                            : XviD
Duration                                 : 1h 40mn
Bit rate                                 : 3 081 Kbps
Width                                    : 1 280 pixels
Height                                   : 544 pixels
Display aspect ratio                     : 2.35:1
Frame rate                               : 23.976 fps
Color space                              : YUV
Chroma subsampling                       : 4:2:0
Bit depth                                : 8 bits
Scan type                                : Progressive
Compression mode                         : Lossy
Bits/(Pixel*Frame)                       : 0.185
Stream size                              : 2.17 GiB (86%)
Writing library                          : XviD 1.2.1 (UTC 2008-12-04)
Default                                  : Yes
Forced                                   : No

Audio
ID                                       : 2
Format                                   : AC-3
Format/Info                              : Audio Coding 3
Mode extension                           : CM (complete main)
Muxing mode                              : Header stripping
Codec ID                                 : A_AC3
Duration                                 : 1h 40mn
Bit rate mode                            : Constant
Bit rate                                 : 448 Kbps
Channel(s)                               : 6 channels
Channel positions                        : Front: L C R, Side: L R, LFE
Sampling rate                            : 48.0 KHz
Bit depth                                : 16 bits
Compression mode                         : Lossy
Stream size                              : 323 MiB (12%)
Default                                  : Yes
Forced                                   : No

Text
ID                                       : 3
Format                                   : UTF-8
Codec ID                                 : S_TEXT/UTF8
Codec ID/Info                            : UTF-8 Plain Text
Language                                 : Dutch
Default                                  : Yes
Forced                                   : No



 
http://www.imdb.com/title/tt0780504/ 
http://www.moviemeter.nl/film/71438




Deze film wordt u aangeboden door het DutchReleaseTeam.
Voor de reviews van de nieuwste films, muziek, series, games etc
ga dan eens naar http://www.hetmultimediacafe.be/